<?xml version="1.0" encoding="utf-8"?>
<svg xmlns="http://www.w3.org/2000/svg" viewBox="0 0 105 80">
  <g>
    <g fill="#0098FF">
      <path d="M82.67 34.73c-6.094.71-18.186 8.704-9.033 17.922h.002c1.848 1.862 3.449 5.044 3.325 7.853-.243 5.48-4.89 9.726-10.38 9.485-5.156-.226-9.222-4.327-9.5-9.362-1.503-13.268-21.47-16.11-29.78-7.838-1.915 2.113-4.69 3.354-7.763 3.218-5.477-.24-9.72-4.872-9.478-10.345.168-3.826 3.037-7.213 6.824-7.863 9.76-1.122 17.63-11.866 12.38-21.02-1.043-1.82-1.866-3.839-1.766-6.1.217-4.917 3.982-8.84 8.715-9.412 4.472-.688 7.051-3.96 9.463-7.043a9.921 9.921 0 0 1 8.563-4.215c5.476.24 9.719 4.873 9.478 10.345-.1 2.254-1.033 4.229-2.285 5.908-1.067 1.43-2.213 3.434-2.205 5.811.015 4.356 4.451 8.43 8.888 8.902 2.737.291 6.665-.342 9.052-2.302 3.016-2.48 4.637-3.175 7.926-3.07 5.502.177 8.814 5.135 8.519 9.959-.336 5.474-4.852 8.4-10.945 9.168Z"/>
      <path d="M23.213 11.578a5.059 5.059 0 0 1-5.064 5.054 5.059 5.059 0 0 1-5.064-5.054 5.059 5.059 0 0 1 5.064-5.054 5.059 5.059 0 0 1 5.064 5.054Z"/>
    </g>
    <g fill="black">
      <path d="M1.524 29.355a5.21 5.21 0 0 1 3.681-1.521 5.203 5.203 0 0 1 3.682 1.52 5.186 5.186 0 0 1 1.524 3.674v4.745H6.459v-4.665c-.001-.568-.138-1.054-.368-1.43-.232-.37-.534-.59-.886-.592-.352.001-.652.221-.886.592-.23.376-.368.862-.368 1.43v4.665H0v-4.745c0-1.429.585-2.74 1.524-3.673Z"/>
      <path d="M14.663 26.556c.398-.396.643-.945.643-1.55 0-.605-.245-1.154-.643-1.55a2.188 2.188 0 0 0-1.553-.642 2.19 2.19 0 0 0-2.197 2.192c0 .605.245 1.154.643 1.55l.486.484c.81.808.867 1.023.097 1.791l-.44.44a1.98 1.98 0 0 0-.585 1.41v7.09h3.993v-7.09a1.99 1.99 0 0 0-.584-1.41l-.442-.44c-.77-.768-.713-.983.097-1.79l.485-.485Z"/>
      <path d="M20.856 35.37c.352-.001.652-.255.886-.684v-.002a3.26 3.26 0 0 0 .339-1.162h3.955a5.138 5.138 0 0 1-1.809 3.466 5.21 5.21 0 0 1-7.054-.282 5.189 5.189 0 0 1 0-7.346 5.21 5.21 0 0 1 3.681-1.521 5.203 5.203 0 0 1 5.182 4.705h-3.955a3.268 3.268 0 0 0-.34-1.163c-.233-.43-.533-.682-.885-.684-.352.002-.653.255-.886.684-.23.435-.367.996-.367 1.652 0 .658.137 1.219.367 1.653.233.429.534.684.886.684Z"/>
      <path d="M36.566 37.083a.685.685 0 0 0-.105-.36l-2.163-3.265 1.497-2.714a1.97 1.97 0 0 0-.698-2.7 1.978 1.978 0 0 0-2.706.697l-1.789 3.192v-2.127a1.975 1.975 0 0 0-1.976-1.972 1.974 1.974 0 0 0-1.977 1.972v7.968h3.952v-3.12l2.084 3.118h3.19a.69.69 0 0 0 .688-.688h.002Z"/>
      <path d="M37.517 29.35a5.205 5.205 0 0 1 3.68-1.52l.003.001c1.446-.001 2.688.57 3.664 1.553 1.676 1.69 1.257 4.188 1.257 4.188h-6.134c.055.406.167.764.326 1.061.233.43.534.684.886.684.84 0 1.329-1.227 1.329-1.227h3.521s-.051 1.33-1.139 2.576c-.863.864-2.142 1.553-3.688 1.553a5.206 5.206 0 0 1-3.705-1.521 5.188 5.188 0 0 1 0-7.347Zm2.535 2.746 2.288-.006c-.046-.221-.142-.555-.249-.747-.248-.446-.538-.698-.894-.699-.352.001-.709.308-.886.684a4.08 4.08 0 0 0-.26.768Z"/>
      <path d="M48.656 22.796a1.974 1.974 0 0 0-1.975 1.973l.005 13.002h3.952l-.006-13.004c0-1.09-.886-1.971-1.976-1.971Z"/>
      <path d="M51.184 33.028a5.2 5.2 0 0 1 5.205-5.194 5.2 5.2 0 0 1 5.205 5.194 5.2 5.2 0 0 1-5.205 5.194 5.2 5.2 0 0 1-5.206-5.194Zm3.951 0c0 1.292.562 2.34 1.254 2.34s1.254-1.048 1.254-2.34c0-1.292-.562-2.34-1.254-2.34s-1.254 1.048-1.254 2.34Z"/>
      <path d="M72.48 33.028 l0 -8.259 c0-1.09-.886-1.971-1.978-1.971-1.09 0-1.975.884-1.973 1.973v3.224a5.208 5.208 0 0 0-4.938 1.367 5.183 5.183 0 0 0 0 7.346c.599.6 1.885 1.522 3.68 1.522 1.796 0 3.081-.921 3.681-1.523a5.19 5.19 0 0 0 1.526-3.673v-.004Zm-5.206 2.34c-.692 0-1.254-1.048-1.254-2.34 0-1.292.562-2.34 1.254-2.34s1.254 1.048 1.254 2.34c0 1.292-.562 2.34-1.254 2.34Z"/>
      <path d="M74.506 29.35a5.205 5.205 0 0 1 3.68-1.52l.003.001c1.446-.001 2.688.57 3.664 1.553 1.677 1.69 1.256 4.188 1.256 4.188h-6.133c.055.406.167.764.325 1.061.234.43.534.684.886.684.841 0 1.33-1.227 1.33-1.227h3.521s-.051 1.33-1.14 2.576c-.863.864-2.142 1.553-3.687 1.553a5.206 5.206 0 0 1-3.705-1.521 5.188 5.188 0 0 1 0-7.347Zm2.535 2.746 2.288-.006c-.046-.221-.142-.555-.249-.747-.248-.446-.538-.698-.894-.699-.352.001-.71.308-.886.684a4.074 4.074 0 0 0-.26.768Z"/>
      <path d="M88.896 27.834a5.2 5.2 0 0 0-5.205 5.194 5.2 5.2 0 0 0 5.205 5.194 5.2 5.2 0 0 0 5.205-5.194 5.2 5.2 0 0 0-5.205-5.194Zm0 7.533c-.692 0-1.254-1.047-1.254-2.339s.562-2.34 1.254-2.34 1.254 1.048 1.254 2.34c0 1.292-.562 2.34-1.254 2.34Z"/>
      <path d="M99.795 27.834a5.21 5.21 0 0 0-3.682 1.52 5.181 5.181 0 0 0-1.524 3.674v4.745h3.952v-4.665c0-.568.137-1.054.368-1.43.233-.37.534-.59.886-.592.352.001.654.221.886.592.229.376.366.862.368 1.43v4.665H105v-4.745c0-1.429-.585-2.74-1.524-3.673a5.204 5.204 0 0 0-3.681-1.521Z"/>
    </g>
  </g>
</svg>